<?xml version="1.0" encoding="utf-8"?>
<!-- Generator: Adobe Illustrator 16.0.0, SVG Export Plug-In . SVG Version: 6.00 Build 0)  -->
<!DOCTYPE svg PUBLIC "-//W3C//DTD SVG 1.1//EN" "http://www.w3.org/Graphics/SVG/1.1/DTD/svg11.dtd" [
	<!ENTITY ns_flows "http://ns.adobe.com/Flows/1.0/">
	<!ENTITY ns_extend "http://ns.adobe.com/Extensibility/1.0/">
	<!ENTITY ns_ai "http://ns.adobe.com/AdobeIllustrator/10.0/">
	<!ENTITY ns_graphs "http://ns.adobe.com/Graphs/1.0/">
	<!ENTITY ns_vars "http://ns.adobe.com/Variables/1.0/">
	<!ENTITY ns_imrep "http://ns.adobe.com/ImageReplacement/1.0/">
	<!ENTITY ns_sfw "http://ns.adobe.com/SaveForWeb/1.0/">
	<!ENTITY ns_custom "http://ns.adobe.com/GenericCustomNamespace/1.0/">
	<!ENTITY ns_adobe_xpath "http://ns.adobe.com/XPath/1.0/">
]>
<svg version="1.1" xmlns:x="&ns_extend;" xmlns:i="&ns_ai;" xmlns:graph="&ns_graphs;"
	 xmlns="http://www.w3.org/2000/svg" xmlns:xlink="http://www.w3.org/1999/xlink" xmlns:a="http://ns.adobe.com/AdobeSVGViewerExtensions/3.0/"
	 x="0px" y="0px" width="1124.998px" height="750px" viewBox="0 0 1124.998 750" enable-background="new 0 0 1124.998 750"
	 xml:space="preserve">
<metadata>
	<sfw  xmlns="&ns_sfw;">
		<slices></slices>
		<sliceSourceBounds  y="-1496.737" x="0" width="1930" height="2246.737" bottomLeftOrigin="true"></sliceSourceBounds>
	</sfw>
</metadata>
<g id="FILL-BACKGROUND">
</g>
<g id="N-DIMENSIONS">
</g>
<g id="N-TEXT">
</g>
<g id="AG-SPORTS">
	<g id="POLYLINE_118_">
		
			<rect x="81.818" y="119.318" fill="none" stroke="#E74C3C" stroke-width="3" stroke-miterlimit="10" width="961.362" height="511.362"/>
	</g>
	<g id="POLYLINE_117_">
		
			<line fill="none" stroke="#E74C3C" stroke-width="3" stroke-miterlimit="10" x1="562.499" y1="630.681" x2="562.499" y2="119.318"/>
	</g>
	<g id="POLYLINE_116_">
		<path fill="none" stroke="#E74C3C" stroke-width="3" stroke-miterlimit="10" d="M582.954,374.999
			c0.003-8.089-4.928-15.524-12.316-18.765c-7.338-3.219-16.209-1.688-22.059,3.779c-5.897,5.51-8.058,14.172-5.368,21.796
			c2.692,7.631,9.814,12.995,17.862,13.594c7.981,0.594,15.857-3.804,19.542-10.908
			C582.135,381.564,582.955,378.304,582.954,374.999z"/>
	</g>
	<g id="POLYLINE_115_">
		<path fill="none" stroke="#E74C3C" stroke-width="3" stroke-miterlimit="10" d="M623.863,374.999
			c-0.072-7.876-1.477-15.753-4.496-23.052c-3.042-7.354-7.379-14.099-12.948-19.799c-5.571-5.703-12.21-10.244-19.507-13.445
			c-7.271-3.189-15.122-4.81-23.041-5.053c-7.795-0.238-15.818,1.138-23.089,3.957c-7.387,2.863-14.252,7.008-20.046,12.435
			c-5.817,5.45-10.556,11.94-13.918,19.173c-3.357,7.221-5.203,15.038-5.618,22.98c-0.409,7.851,0.822,15.828,3.436,23.232
			c2.632,7.459,6.724,14.453,12.008,20.346c5.325,5.938,11.709,10.809,18.866,14.333c7.145,3.518,14.923,5.526,22.853,6.115
			c7.84,0.582,15.842-0.477,23.303-2.929c7.46-2.452,14.527-6.352,20.494-11.47c6.037-5.179,11.096-11.416,14.765-18.484
			c3.701-7.131,5.923-14.882,6.694-22.872C623.793,378.65,623.847,376.823,623.863,374.999z"/>
	</g>
	<g id="POLYLINE_114_">
		<line fill="none" stroke="#E74C3C" stroke-width="3" stroke-miterlimit="10" x1="1043.18" y1="630.681" x2="1043.18" y2="600"/>
	</g>
	<g id="POLYLINE_113_">
		<line fill="none" stroke="#E74C3C" stroke-width="3" stroke-miterlimit="10" x1="368.181" y1="630.681" x2="368.181" y2="600"/>
	</g>
	<g id="POLYLINE_112_">
		<line fill="none" stroke="#E74C3C" stroke-width="3" stroke-miterlimit="10" x1="756.817" y1="630.681" x2="756.817" y2="600"/>
	</g>
	<g id="POLYLINE_111_">
		
			<line fill="none" stroke="#E74C3C" stroke-width="3" stroke-miterlimit="10" x1="756.817" y1="119.318" x2="756.817" y2="149.999"/>
	</g>
	<g id="POLYLINE_110_">
		
			<line fill="none" stroke="#E74C3C" stroke-width="3" stroke-miterlimit="10" x1="368.181" y1="119.318" x2="368.181" y2="149.999"/>
	</g>
	<g id="POLYLINE_109_">
		<line fill="none" stroke="#E74C3C" stroke-width="3" stroke-miterlimit="10" x1="81.818" y1="630.681" x2="81.818" y2="600"/>
	</g>
	<g id="POLYLINE_108_">
		<path fill="none" stroke="#E74C3C" stroke-width="3" stroke-miterlimit="10" d="M1043.18,149.999c-4.349,0-8.697,0-13.047,0
			c-10.58,0-21.161,0-31.741,0c-13.114,0-26.229,0-39.343,0c-11.949,0-23.898,0-35.848,0c-7.085,0-14.171,0-21.257,0
			c-0.578,0-1.156,0-1.734,0c-0.062,0-0.162-0.02-0.222,0.005c-1.174,0.48-2.348,0.961-3.522,1.441
			c-3.878,1.588-7.701,3.325-11.483,5.129c-7.788,3.713-15.397,7.826-22.746,12.348c-7.473,4.598-14.688,9.567-21.658,14.896
			c-6.773,5.178-13.223,10.764-19.425,16.61c-6.233,5.874-12.082,12.141-17.67,18.628c-5.575,6.471-10.808,13.298-15.603,20.367
			c-4.814,7.097-9.352,14.388-13.394,21.955c-4.029,7.545-7.744,15.261-10.955,23.191c-3.216,7.939-6.057,16.02-8.428,24.252
			c-2.413,8.375-4.41,16.887-5.867,25.481c-1.446,8.525-2.488,17.109-3.03,25.741c-0.537,8.546-0.651,17.143-0.228,25.696
			c0.43,8.652,1.288,17.25,2.577,25.816c1.301,8.641,3.172,17.203,5.436,25.641c2.217,8.262,4.936,16.368,7.992,24.354
			c3.02,7.892,6.523,15.646,10.43,23.139c3.961,7.598,8.234,15.039,12.978,22.179c4.775,7.189,9.86,14.179,15.37,20.825
			c5.512,6.648,11.324,13.04,17.497,19.082c6.131,6,12.557,11.688,19.274,17.024c6.778,5.383,13.842,10.375,21.128,15.047
			c7.32,4.694,14.937,8.939,22.717,12.819c3.694,1.843,7.435,3.609,11.228,5.238c2.261,0.971,4.526,1.921,6.803,2.853
			c0.519,0.213,0.701,0.242,1.23,0.242c5.965,0,11.929,0,17.893,0c11.42,0,22.84,0,34.259,0c13.177,0,26.353,0,39.529,0
			c11.234,0,22.469,0,33.703,0c5.595,0,11.189,0,16.783,0c0.125,0,0.249,0,0.374,0"/>
	</g>
	<g id="POLYLINE_107_">
		<path fill="none" stroke="#E74C3C" stroke-width="3" stroke-miterlimit="10" d="M81.818,149.999c4.349,0,8.698,0,13.046,0
			c10.581,0,21.162,0,31.743,0c13.114,0,26.229,0,39.343,0c11.949,0,23.898,0,35.848,0c7.085,0,14.171,0,21.257,0
			c0.578,0,1.156,0,1.734,0c0.062,0,0.163-0.021,0.222,0.005c1.174,0.48,2.348,0.961,3.521,1.441
			c3.878,1.588,7.701,3.326,11.484,5.129c7.787,3.711,15.4,7.823,22.746,12.348c7.471,4.601,14.688,9.567,21.659,14.896
			c6.773,5.178,13.221,10.766,19.425,16.609c6.234,5.872,12.08,12.144,17.668,18.629c5.575,6.471,10.808,13.298,15.603,20.366
			c4.814,7.098,9.353,14.389,13.394,21.957c4.029,7.544,7.745,15.26,10.955,23.189c3.214,7.941,6.057,16.021,8.428,24.254
			c2.413,8.375,4.405,16.887,5.866,25.48c1.45,8.524,2.488,17.109,3.03,25.741c0.537,8.546,0.647,17.143,0.228,25.696
			c-0.425,8.652-1.288,17.25-2.577,25.816c-1.301,8.641-3.174,17.202-5.435,25.641c-2.213,8.262-4.934,16.37-7.993,24.354
			c-3.023,7.891-6.521,15.646-10.429,23.139c-3.962,7.597-8.233,15.04-12.978,22.179c-4.777,7.189-9.861,14.177-15.371,20.825
			s-11.321,13.045-17.497,19.082c-6.134,5.997-12.557,11.688-19.274,17.024c-6.777,5.384-13.842,10.375-21.127,15.047
			c-7.32,4.694-14.938,8.937-22.717,12.819c-3.693,1.844-7.435,3.609-11.229,5.238c-2.26,0.971-4.525,1.921-6.802,2.853
			c-0.518,0.213-0.701,0.242-1.23,0.242c-5.964,0-11.929,0-17.893,0c-11.419,0-22.839,0-34.259,0c-13.177,0-26.353,0-39.529,0
			c-11.235,0-22.469,0-33.704,0c-5.595,0-11.189,0-16.784,0c-0.125,0-0.249,0-0.374,0"/>
	</g>
	<g id="POLYLINE_106_">
		<polyline fill="none" stroke="#E74C3C" stroke-width="3" stroke-miterlimit="10" points="1043.18,313.636 849.715,313.636 
			849.715,436.363 1043.18,436.363 		"/>
	</g>
	<g id="POLYLINE_105_">
		<polyline fill="none" stroke="#E74C3C" stroke-width="3" stroke-miterlimit="10" points="1043.18,293.182 849.715,293.182 
			849.715,456.818 1043.18,456.818 		"/>
	</g>
	<g id="POLYLINE_104_">
		
			<line fill="none" stroke="#E74C3C" stroke-width="3" stroke-miterlimit="10" x1="121.875" y1="405.682" x2="121.875" y2="344.317"/>
	</g>
	<g id="POLYLINE_103_">
		<path fill="none" stroke="#E74C3C" stroke-width="3" stroke-miterlimit="10" d="M121.875,374.999
			c0.028-6.364,4.056-12.194,10.045-14.397c6.158-2.266,13.32-0.258,17.361,4.926c4.144,5.314,4.301,12.771,0.479,18.303
			c-3.75,5.425-10.891,7.771-17.147,5.803c-6.212-1.956-10.58-7.794-10.734-14.298C121.876,375.223,121.875,375.111,121.875,374.999
			z"/>
	</g>
	<g id="POLYLINE_102_">
		<path fill="none" stroke="#E74C3C" stroke-width="3" stroke-miterlimit="10" d="M121.875,334.09c4.849,0,9.697,0,14.545,0
			c3.593,0,7.144,0.336,10.638,1.203c7.637,1.893,14.726,6.024,20.074,11.807c5.418,5.856,9.028,13.145,10.405,21.004
			c1.36,7.757,0.35,15.9-2.769,23.123c-3.119,7.222-8.363,13.539-14.942,17.864c-6.666,4.382-14.45,6.75-22.427,6.815
			c-5.174,0.043-10.35,0.002-15.524,0.002"/>
	</g>
	<g id="POLYLINE_101_">
		<path fill="none" stroke="#E74C3C" stroke-width="3" stroke-miterlimit="10" d="M1003.123,334.09c-4.849,0-9.696,0-14.545,0
			c-3.593,0-7.145,0.336-10.639,1.203c-7.637,1.895-14.726,6.024-20.074,11.807c-5.42,5.858-9.022,13.145-10.405,21.004
			c-1.364,7.749-0.354,15.909,2.77,23.123c3.129,7.228,8.36,13.526,14.942,17.864c6.658,4.387,14.456,6.75,22.427,6.815
			c5.175,0.043,10.351,0.002,15.524,0.002"/>
	</g>
	<g id="POLYLINE_100_">
		<path fill="none" stroke="#E74C3C" stroke-width="3" stroke-miterlimit="10" d="M1003.123,374.999
			c0.03-6.452-4.247-12.444-10.361-14.51c-6.474-2.187-13.837,0.206-17.675,5.899c-3.744,5.557-3.42,13.011,0.756,18.242
			c4.321,5.415,12.072,7.203,18.347,4.308C999.558,386.461,1003.15,380.93,1003.123,374.999z"/>
	</g>
	<g id="POLYLINE_99_">
		
			<line fill="none" stroke="#E74C3C" stroke-width="3" stroke-miterlimit="10" x1="1003.123" y1="405.682" x2="1003.123" y2="344.317"/>
	</g>
	<g id="POLYLINE_98_">
		<line fill="none" stroke="#E74C3C" stroke-width="3" stroke-miterlimit="10" x1="81.818" y1="487.499" x2="86.932" y2="487.499"/>
	</g>
	<g id="POLYLINE_97_">
		<line fill="none" stroke="#E74C3C" stroke-width="3" stroke-miterlimit="10" x1="81.818" y1="262.499" x2="86.932" y2="262.499"/>
	</g>
	<g id="POLYLINE_96_">
		<polyline fill="none" stroke="#E74C3C" stroke-width="3" stroke-miterlimit="10" points="81.818,313.636 275.284,313.636 
			275.284,436.363 81.818,436.363 		"/>
	</g>
	<g id="POLYLINE_95_">
		<polyline fill="none" stroke="#E74C3C" stroke-width="3" stroke-miterlimit="10" points="81.818,293.182 275.284,293.182 
			275.284,456.818 81.818,456.818 		"/>
	</g>
	<g id="POLYLINE_94_">
		<path fill="none" stroke="#E74C3C" stroke-width="3" stroke-miterlimit="10" d="M214.256,368.585
			c0.482-4.274,1.37-8.447,2.667-12.548"/>
	</g>
	<g id="POLYLINE_93_">
		<path fill="none" stroke="#E74C3C" stroke-width="3" stroke-miterlimit="10" d="M216.924,393.962
			c-1.298-4.101-2.185-8.273-2.667-12.548"/>
	</g>
	<g id="POLYLINE_92_">
		<path fill="none" stroke="#E74C3C" stroke-width="3" stroke-miterlimit="10" d="M229.682,416.06
			c-2.854-3.219-5.359-6.67-7.541-10.378"/>
	</g>
	<g id="POLYLINE_91_">
		<path fill="none" stroke="#E74C3C" stroke-width="3" stroke-miterlimit="10" d="M250.325,431.058
			c-3.915-1.785-7.609-3.912-11.109-6.414"/>
	</g>
	<g id="POLYLINE_90_">
		<path fill="none" stroke="#E74C3C" stroke-width="3" stroke-miterlimit="10" d="M222.142,344.317
			c2.18-3.708,4.685-7.161,7.541-10.378"/>
	</g>
	<g id="POLYLINE_89_">
		<path fill="none" stroke="#E74C3C" stroke-width="3" stroke-miterlimit="10" d="M239.215,325.355
			c3.502-2.5,7.194-4.631,11.109-6.415"/>
	</g>
	<g id="POLYLINE_88_">
		<path fill="none" stroke="#E74C3C" stroke-width="3" stroke-miterlimit="10" d="M262.525,314.977
			c8.736-1.779,17.73-1.789,26.435,0.203c8.664,1.982,16.871,5.861,23.897,11.304c7.046,5.458,12.742,12.401,16.902,20.269
			c4.161,7.869,6.365,16.676,6.828,25.538c0.458,8.77-1.177,17.639-4.44,25.771c-3.312,8.254-8.507,15.698-14.978,21.782
			c-6.484,6.097-14.319,10.65-22.751,13.459c-8.436,2.809-17.482,3.647-26.303,2.639c-1.878-0.215-3.738-0.542-5.589-0.919"/>
	</g>
	<g id="POLYLINE_87_">
		<path fill="none" stroke="#E74C3C" stroke-width="3" stroke-miterlimit="10" d="M862.473,314.977
			c-8.71-1.776-17.586-1.744-26.271,0.167c-8.54,1.878-16.687,5.724-23.635,11.018c-7.075,5.39-12.94,12.298-17.099,20.16
			c-4.156,7.86-6.566,16.604-7.03,25.482c-0.461,8.796,0.982,17.717,4.269,25.895c3.275,8.151,8.239,15.569,14.593,21.646
			c6.319,6.043,13.921,10.691,22.172,13.58c8.217,2.878,17.12,4.024,25.795,3.187c2.425-0.235,4.82-0.603,7.207-1.089"/>
	</g>
	<g id="POLYLINE_86_">
		<path fill="none" stroke="#E74C3C" stroke-width="3" stroke-miterlimit="10" d="M885.783,325.355
			c-3.503-2.5-7.193-4.631-11.109-6.415"/>
	</g>
	<g id="POLYLINE_85_">
		<path fill="none" stroke="#E74C3C" stroke-width="3" stroke-miterlimit="10" d="M902.857,344.317
			c-2.184-3.706-4.687-7.158-7.54-10.378"/>
	</g>
	<g id="POLYLINE_84_">
		<path fill="none" stroke="#E74C3C" stroke-width="3" stroke-miterlimit="10" d="M874.674,431.058
			c3.915-1.785,7.608-3.912,11.109-6.414"/>
	</g>
	<g id="POLYLINE_83_">
		<path fill="none" stroke="#E74C3C" stroke-width="3" stroke-miterlimit="10" d="M895.317,416.06
			c2.853-3.222,5.355-6.671,7.54-10.378"/>
	</g>
	<g id="POLYLINE_82_">
		<path fill="none" stroke="#E74C3C" stroke-width="3" stroke-miterlimit="10" d="M908.075,393.962
			c1.293-4.104,2.182-8.272,2.667-12.548"/>
	</g>
	<g id="POLYLINE_81_">
		<path fill="none" stroke="#E74C3C" stroke-width="3" stroke-miterlimit="10" d="M910.742,368.585
			c-0.484-4.276-1.375-8.444-2.667-12.548"/>
	</g>
	<g id="POLYLINE_80_">
		
			<line fill="none" stroke="#E74C3C" stroke-width="3" stroke-miterlimit="10" x1="1043.18" y1="262.499" x2="1038.066" y2="262.499"/>
	</g>
	<g id="POLYLINE_79_">
		
			<line fill="none" stroke="#E74C3C" stroke-width="3" stroke-miterlimit="10" x1="1043.18" y1="487.499" x2="1038.066" y2="487.499"/>
	</g>
	<g id="POLYLINE_78_">
		
			<line fill="none" stroke="#E74C3C" stroke-width="3" stroke-miterlimit="10" x1="215.625" y1="426.136" x2="215.625" y2="421.021"/>
	</g>
	<g id="POLYLINE_77_">
		
			<line fill="none" stroke="#E74C3C" stroke-width="3" stroke-miterlimit="10" x1="215.625" y1="323.863" x2="215.625" y2="328.977"/>
	</g>
	<g id="POLYLINE_76_">
		
			<line fill="none" stroke="#E74C3C" stroke-width="3" stroke-miterlimit="10" x1="909.374" y1="323.863" x2="909.374" y2="328.977"/>
	</g>
	<g id="POLYLINE_75_">
		
			<line fill="none" stroke="#E74C3C" stroke-width="3" stroke-miterlimit="10" x1="909.374" y1="426.136" x2="909.374" y2="421.021"/>
	</g>
	<g id="POLYLINE_74_">
		
			<line fill="none" stroke="#E74C3C" stroke-width="3" stroke-miterlimit="10" x1="227.557" y1="293.182" x2="227.557" y2="286.363"/>
	</g>
	<g id="POLYLINE_73_">
		<line fill="none" stroke="#E74C3C" stroke-width="3" stroke-miterlimit="10" x1="195.17" y1="293.182" x2="195.17" y2="286.363"/>
	</g>
	<g id="POLYLINE_72_">
		
			<rect x="153.409" y="286.363" fill="none" stroke="#E74C3C" stroke-width="3" stroke-miterlimit="10" width="10.227" height="6.818"/>
	</g>
	<g id="POLYLINE_71_">
		
			<rect x="153.409" y="456.818" fill="none" stroke="#E74C3C" stroke-width="3" stroke-miterlimit="10" width="10.227" height="6.816"/>
	</g>
	<g id="POLYLINE_70_">
		<line fill="none" stroke="#E74C3C" stroke-width="3" stroke-miterlimit="10" x1="195.17" y1="456.818" x2="195.17" y2="463.635"/>
	</g>
	<g id="POLYLINE_69_">
		
			<line fill="none" stroke="#E74C3C" stroke-width="3" stroke-miterlimit="10" x1="227.557" y1="456.818" x2="227.557" y2="463.635"/>
	</g>
	<g id="POLYLINE_68_">
		
			<line fill="none" stroke="#E74C3C" stroke-width="3" stroke-miterlimit="10" x1="897.441" y1="456.818" x2="897.441" y2="463.635"/>
	</g>
	<g id="POLYLINE_67_">
		
			<line fill="none" stroke="#E74C3C" stroke-width="3" stroke-miterlimit="10" x1="929.828" y1="456.818" x2="929.828" y2="463.635"/>
	</g>
	<g id="POLYLINE_66_">
		
			<rect x="961.362" y="456.818" fill="none" stroke="#E74C3C" stroke-width="3" stroke-miterlimit="10" width="10.228" height="6.816"/>
	</g>
	<g id="POLYLINE_65_">
		
			<rect x="961.362" y="286.363" fill="none" stroke="#E74C3C" stroke-width="3" stroke-miterlimit="10" width="10.228" height="6.818"/>
	</g>
	<g id="POLYLINE_64_">
		
			<line fill="none" stroke="#E74C3C" stroke-width="3" stroke-miterlimit="10" x1="929.828" y1="293.182" x2="929.828" y2="286.363"/>
	</g>
	<g id="POLYLINE_63_">
		
			<line fill="none" stroke="#E74C3C" stroke-width="3" stroke-miterlimit="10" x1="897.441" y1="293.182" x2="897.441" y2="286.363"/>
	</g>
	<g id="POLYLINE_62_">
		
			<line fill="none" stroke="#E74C3C" stroke-width="3" stroke-miterlimit="10" x1="520.738" y1="671.59" x2="520.738" y2="630.681"/>
	</g>
	<g id="POLYLINE_61_">
		<line fill="none" stroke="#E74C3C" stroke-width="3" stroke-miterlimit="10" x1="604.26" y1="630.681" x2="604.26" y2="671.59"/>
	</g>
</g>
</svg>
